# xmcd CD database file
#
# Track frame offsets:
#	150
#	18127
#	40040
#	56728
#	71094
#	91905
#	110080
#	136799
#	155593
#	173375
#	192278
#	211181
#
# Disc length: 3052 seconds
#
# Revision: 2
# Processed by: cddbd v1.5.1PL0 Copyright (c) Steve Scherf et al.
# Submitted via: CDex 1.51
#
DISCID=980bea0c
DTITLE=Max Stalling - Comfort In The Curves
DYEAR=1999
DGENRE=Country
TTITLE0=I-35
TTITLE1=Mockingbird
TTITLE2=Might Have Been In Austin
TTITLE3=Come Around
TTITLE4=Time's Hand In Your Pocket
TTITLE5=Tadpoles and Eagles
TTITLE6=Sparks
TTITLE7=Fermented Evenings
TTITLE8=The Rock Song
TTITLE9=These Things That I Don't Dare
TTITLE10=Bath Water Baby
TTITLE11=Look In My Past
EXTD=YEAR: 1999
EXTT0=
EXTT1=
EXTT2=
EXTT3=
EXTT4=
EXTT5=
EXTT6=
EXTT7=
EXTT8=
EXTT9=
EXTT10=
EXTT11=
PLAYORDER=
